<?xml version="1.0" encoding="utf-8" standalone="no"?>
<!DOCTYPE svg PUBLIC "-//W3C//DTD SVG 1.1//EN"
  "http://www.w3.org/Graphics/SVG/1.1/DTD/svg11.dtd">
<!-- Created with matplotlib (http://matplotlib.org/) -->
<svg height="432pt" version="1.1" viewBox="0 0 720 432" width="720pt" xmlns="http://www.w3.org/2000/svg" xmlns:xlink="http://www.w3.org/1999/xlink">
 <defs>
  <style type="text/css">
*{stroke-linecap:butt;stroke-linejoin:round;}
  </style>
 </defs>
 <g id="figure_1">
  <g id="patch_1">
   <path d="
M0 432
L720 432
L720 0
L0 0
z
" style="fill:#f2f2f2;"/>
  </g>
  <g id="axes_1">
   <g id="patch_2">
    <path d="
M90 388.8
L648 388.8
L648 43.2
L90 43.2
z
" style="fill:#ffffff;"/>
   </g>
   <g id="line2d_1">
    <path clip-path="url(#pd03f7f58b8)" d="
M560.812 231.886
L473.625 178.224
L386.438 170.233
L299.25 168.466
L212.062 158.3
L124.875 148.884" style="fill:none;stroke:#808080;stroke-dasharray:6.000000,6.000000;stroke-dashoffset:0.0;"/>
    <defs>
     <path d="
M0 3.5
C0.928211 3.5 1.81853 3.13122 2.47487 2.47487
C3.13122 1.81853 3.5 0.928211 3.5 0
C3.5 -0.928211 3.13122 -1.81853 2.47487 -2.47487
C1.81853 -3.13122 0.928211 -3.5 0 -3.5
C-0.928211 -3.5 -1.81853 -3.13122 -2.47487 -2.47487
C-3.13122 -1.81853 -3.5 -0.928211 -3.5 0
C-3.5 0.928211 -3.13122 1.81853 -2.47487 2.47487
C-1.81853 3.13122 -0.928211 3.5 0 3.5
z
" id="m4f7e51ea95"/>
    </defs>
    <g clip-path="url(#pd03f7f58b8)">
     <use x="560.8125" xlink:href="#m4f7e51ea95" y="231.885646196"/>
     <use x="473.625" xlink:href="#m4f7e51ea95" y="178.22385032"/>
     <use x="386.4375" xlink:href="#m4f7e51ea95" y="170.232982011"/>
     <use x="299.25" xlink:href="#m4f7e51ea95" y="168.466492809"/>
     <use x="212.0625" xlink:href="#m4f7e51ea95" y="158.299882091"/>
     <use x="124.875" xlink:href="#m4f7e51ea95" y="148.884024603"/>
    </g>
   </g>
   <g id="line2d_2">
    <path clip-path="url(#pd03f7f58b8)" d="
M560.812 364.581
L473.625 361.143
L386.438 359.001
L299.25 353.442
L212.062 334.002
L124.875 257.867" style="fill:none;stroke:#808080;stroke-dasharray:6.000000,6.000000;stroke-dashoffset:0.0;"/>
    <defs>
     <path d="
M-3.5 3.5
L3.5 3.5
L3.5 -3.5
L-3.5 -3.5
z
" id="m4b7bbbf68f"/>
    </defs>
    <g clip-path="url(#pd03f7f58b8)">
     <use x="560.8125" xlink:href="#m4b7bbbf68f" y="364.580989213"/>
     <use x="473.625" xlink:href="#m4b7bbbf68f" y="361.142917702"/>
     <use x="386.4375" xlink:href="#m4b7bbbf68f" y="359.000658625"/>
     <use x="299.25" xlink:href="#m4b7bbbf68f" y="353.441826283"/>
     <use x="212.0625" xlink:href="#m4b7bbbf68f" y="334.002092951"/>
     <use x="124.875" xlink:href="#m4b7bbbf68f" y="257.866764138"/>
    </g>
   </g>
   <g id="line2d_3">
    <path clip-path="url(#pd03f7f58b8)" d="
M560.812 370.698
L473.625 366.729
L386.438 358.702
L299.25 320.432
L212.062 228.584
L124.875 74.6026" style="fill:none;stroke:#808080;stroke-dasharray:6.000000,6.000000;stroke-dashoffset:0.0;"/>
    <defs>
     <path d="
M0 -3.5
L-3.5 3.5
L3.5 3.5
z
" id="mb7de39b556"/>
    </defs>
    <g clip-path="url(#pd03f7f58b8)">
     <use x="560.8125" xlink:href="#mb7de39b556" y="370.69836398"/>
     <use x="473.625" xlink:href="#mb7de39b556" y="366.7288663"/>
     <use x="386.4375" xlink:href="#mb7de39b556" y="358.701555842"/>
     <use x="299.25" xlink:href="#mb7de39b556" y="320.431980202"/>
     <use x="212.0625" xlink:href="#mb7de39b556" y="228.583605402"/>
     <use x="124.875" xlink:href="#mb7de39b556" y="74.6026386593"/>
    </g>
   </g>
   <g id="line2d_4">
    <defs>
     <path d="
M0 3.5
C0.928211 3.5 1.81853 3.13122 2.47487 2.47487
C3.13122 1.81853 3.5 0.928211 3.5 0
C3.5 -0.928211 3.13122 -1.81853 2.47487 -2.47487
C1.81853 -3.13122 0.928211 -3.5 0 -3.5
C-0.928211 -3.5 -1.81853 -3.13122 -2.47487 -2.47487
C-3.13122 -1.81853 -3.5 -0.928211 -3.5 0
C-3.5 0.928211 -3.13122 1.81853 -2.47487 2.47487
C-1.81853 3.13122 -0.928211 3.5 0 3.5
z
" id="m4bf917ace6" style="stroke:#000000;"/>
    </defs>
    <g clip-path="url(#pd03f7f58b8)">
     <use style="fill:#ffffff;stroke:#000000;" x="560.8125" xlink:href="#m4bf917ace6" y="386.863846935"/>
     <use style="fill:#ffffff;stroke:#000000;" x="473.625" xlink:href="#m4bf917ace6" y="382.698880005"/>
     <use style="fill:#ffffff;stroke:#000000;" x="386.4375" xlink:href="#m4bf917ace6" y="369.707459606"/>
     <use style="fill:#ffffff;stroke:#000000;" x="299.25" xlink:href="#m4bf917ace6" y="336.385027521"/>
     <use style="fill:#ffffff;stroke:#000000;" x="212.0625" xlink:href="#m4bf917ace6" y="252.690143655"/>
     <use style="fill:#ffffff;stroke:#000000;" x="124.875" xlink:href="#m4bf917ace6" y="85.278540594"/>
    </g>
   </g>
   <g id="line2d_5">
    <path clip-path="url(#pd03f7f58b8)" d="
M90 -33.8928
M98.9735 -1
L107.438 30.0249
L124.875 84.4174
L142.312 130.704
L159.75 170.093
L177.188 203.612
L194.625 232.136
L212.063 256.409
L229.5 277.065
L246.938 294.643
L264.375 309.601
L281.813 322.33
L299.25 333.162
L316.688 342.38
L334.125 350.225
L351.563 356.9
L369 362.58
L386.438 367.414
L403.875 371.528
L421.313 375.029
L438.75 378.007
L456.188 380.542
L473.625 382.7
L491.063 384.535
L508.5 386.098
L525.938 387.427
L543.375 388.558
L560.813 389.521
L578.25 390.34" style="fill:none;stroke:#0000ff;stroke-linecap:square;stroke-width:2;"/>
   </g>
   <g id="matplotlib.axis_1">
    <g id="xtick_1">
     <g id="line2d_6">
      <defs>
       <path d="
M0 0
L0 -4" id="m93b0483c22" style="stroke:#000000;stroke-width:0.5;"/>
      </defs>
      <g>
       <use style="stroke:#000000;stroke-width:0.5;" x="124.875" xlink:href="#m93b0483c22" y="388.8"/>
      </g>
     </g>
     <g id="line2d_7">
      <defs>
       <path d="
M0 0
L0 4" id="m741efc42ff" style="stroke:#000000;stroke-width:0.5;"/>
      </defs>
      <g>
       <use style="stroke:#000000;stroke-width:0.5;" x="124.875" xlink:href="#m741efc42ff" y="43.2"/>
      </g>
     </g>
     <g id="text_1">
      <!-- 0.70 -->
      <defs>
       <path d="
M31.7812 66.4062
Q24.1719 66.4062 20.3281 58.9062
Q16.5 51.4219 16.5 36.375
Q16.5 21.3906 20.3281 13.8906
Q24.1719 6.39062 31.7812 6.39062
Q39.4531 6.39062 43.2812 13.8906
Q47.125 21.3906 47.125 36.375
Q47.125 51.4219 43.2812 58.9062
Q39.4531 66.4062 31.7812 66.4062
M31.7812 74.2188
Q44.0469 74.2188 50.5156 64.5156
Q56.9844 54.8281 56.9844 36.375
Q56.9844 17.9688 50.5156 8.26562
Q44.0469 -1.42188 31.7812 -1.42188
Q19.5312 -1.42188 13.0625 8.26562
Q6.59375 17.9688 6.59375 36.375
Q6.59375 54.8281 13.0625 64.5156
Q19.5312 74.2188 31.7812 74.2188" id="BitstreamVeraSans-Roman-30"/>
       <path d="
M10.6875 12.4062
L21 12.4062
L21 0
L10.6875 0
z
" id="BitstreamVeraSans-Roman-2e"/>
       <path d="
M8.20312 72.9062
L55.0781 72.9062
L55.0781 68.7031
L28.6094 0
L18.3125 0
L43.2188 64.5938
L8.20312 64.5938
z
" id="BitstreamVeraSans-Roman-37"/>
      </defs>
      <g transform="translate(112.3096875 401.918125)scale(0.12 -0.12)">
       <use xlink:href="#BitstreamVeraSans-Roman-30"/>
       <use x="63.623046875" xlink:href="#BitstreamVeraSans-Roman-2e"/>
       <use x="95.41015625" xlink:href="#BitstreamVeraSans-Roman-37"/>
       <use x="159.033203125" xlink:href="#BitstreamVeraSans-Roman-30"/>
      </g>
     </g>
    </g>
    <g id="xtick_2">
     <g id="line2d_8">
      <g>
       <use style="stroke:#000000;stroke-width:0.5;" x="212.0625" xlink:href="#m93b0483c22" y="388.8"/>
      </g>
     </g>
     <g id="line2d_9">
      <g>
       <use style="stroke:#000000;stroke-width:0.5;" x="212.0625" xlink:href="#m741efc42ff" y="43.2"/>
      </g>
     </g>
     <g id="text_2">
      <!-- 0.75 -->
      <defs>
       <path d="
M10.7969 72.9062
L49.5156 72.9062
L49.5156 64.5938
L19.8281 64.5938
L19.8281 46.7344
Q21.9688 47.4688 24.1094 47.8281
Q26.2656 48.1875 28.4219 48.1875
Q40.625 48.1875 47.75 41.5
Q54.8906 34.8125 54.8906 23.3906
Q54.8906 11.625 47.5625 5.09375
Q40.2344 -1.42188 26.9062 -1.42188
Q22.3125 -1.42188 17.5469 -0.640625
Q12.7969 0.140625 7.71875 1.70312
L7.71875 11.625
Q12.1094 9.23438 16.7969 8.0625
Q21.4844 6.89062 26.7031 6.89062
Q35.1562 6.89062 40.0781 11.3281
Q45.0156 15.7656 45.0156 23.3906
Q45.0156 31 40.0781 35.4375
Q35.1562 39.8906 26.7031 39.8906
Q22.75 39.8906 18.8125 39.0156
Q14.8906 38.1406 10.7969 36.2812
z
" id="BitstreamVeraSans-Roman-35"/>
      </defs>
      <g transform="translate(199.6228125 401.918125)scale(0.12 -0.12)">
       <use xlink:href="#BitstreamVeraSans-Roman-30"/>
       <use x="63.623046875" xlink:href="#BitstreamVeraSans-Roman-2e"/>
       <use x="95.41015625" xlink:href="#BitstreamVeraSans-Roman-37"/>
       <use x="159.033203125" xlink:href="#BitstreamVeraSans-Roman-35"/>
      </g>
     </g>
    </g>
    <g id="xtick_3">
     <g id="line2d_10">
      <g>
       <use style="stroke:#000000;stroke-width:0.5;" x="299.25" xlink:href="#m93b0483c22" y="388.8"/>
      </g>
     </g>
     <g id="line2d_11">
      <g>
       <use style="stroke:#000000;stroke-width:0.5;" x="299.25" xlink:href="#m741efc42ff" y="43.2"/>
      </g>
     </g>
     <g id="text_3">
      <!-- 0.80 -->
      <defs>
       <path d="
M31.7812 34.625
Q24.75 34.625 20.7188 30.8594
Q16.7031 27.0938 16.7031 20.5156
Q16.7031 13.9219 20.7188 10.1562
Q24.75 6.39062 31.7812 6.39062
Q38.8125 6.39062 42.8594 10.1719
Q46.9219 13.9688 46.9219 20.5156
Q46.9219 27.0938 42.8906 30.8594
Q38.875 34.625 31.7812 34.625
M21.9219 38.8125
Q15.5781 40.375 12.0312 44.7188
Q8.5 49.0781 8.5 55.3281
Q8.5 64.0625 14.7188 69.1406
Q20.9531 74.2188 31.7812 74.2188
Q42.6719 74.2188 48.875 69.1406
Q55.0781 64.0625 55.0781 55.3281
Q55.0781 49.0781 51.5312 44.7188
Q48 40.375 41.7031 38.8125
Q48.8281 37.1562 52.7969 32.3125
Q56.7812 27.4844 56.7812 20.5156
Q56.7812 9.90625 50.3125 4.23438
Q43.8438 -1.42188 31.7812 -1.42188
Q19.7344 -1.42188 13.25 4.23438
Q6.78125 9.90625 6.78125 20.5156
Q6.78125 27.4844 10.7812 32.3125
Q14.7969 37.1562 21.9219 38.8125
M18.3125 54.3906
Q18.3125 48.7344 21.8438 45.5625
Q25.3906 42.3906 31.7812 42.3906
Q38.1406 42.3906 41.7188 45.5625
Q45.3125 48.7344 45.3125 54.3906
Q45.3125 60.0625 41.7188 63.2344
Q38.1406 66.4062 31.7812 66.4062
Q25.3906 66.4062 21.8438 63.2344
Q18.3125 60.0625 18.3125 54.3906" id="BitstreamVeraSans-Roman-38"/>
      </defs>
      <g transform="translate(286.6846875 401.918125)scale(0.12 -0.12)">
       <use xlink:href="#BitstreamVeraSans-Roman-30"/>
       <use x="63.623046875" xlink:href="#BitstreamVeraSans-Roman-2e"/>
       <use x="95.41015625" xlink:href="#BitstreamVeraSans-Roman-38"/>
       <use x="159.033203125" xlink:href="#BitstreamVeraSans-Roman-30"/>
      </g>
     </g>
    </g>
    <g id="xtick_4">
     <g id="line2d_12">
      <g>
       <use style="stroke:#000000;stroke-width:0.5;" x="386.4375" xlink:href="#m93b0483c22" y="388.8"/>
      </g>
     </g>
     <g id="line2d_13">
      <g>
       <use style="stroke:#000000;stroke-width:0.5;" x="386.4375" xlink:href="#m741efc42ff" y="43.2"/>
      </g>
     </g>
     <g id="text_4">
      <!-- 0.85 -->
      <g transform="translate(373.9978125 401.918125)scale(0.12 -0.12)">
       <use xlink:href="#BitstreamVeraSans-Roman-30"/>
       <use x="63.623046875" xlink:href="#BitstreamVeraSans-Roman-2e"/>
       <use x="95.41015625" xlink:href="#BitstreamVeraSans-Roman-38"/>
       <use x="159.033203125" xlink:href="#BitstreamVeraSans-Roman-35"/>
      </g>
     </g>
    </g>
    <g id="xtick_5">
     <g id="line2d_14">
      <g>
       <use style="stroke:#000000;stroke-width:0.5;" x="473.625" xlink:href="#m93b0483c22" y="388.8"/>
      </g>
     </g>
     <g id="line2d_15">
      <g>
       <use style="stroke:#000000;stroke-width:0.5;" x="473.625" xlink:href="#m741efc42ff" y="43.2"/>
      </g>
     </g>
     <g id="text_5">
      <!-- 0.90 -->
      <defs>
       <path d="
M10.9844 1.51562
L10.9844 10.5
Q14.7031 8.73438 18.5 7.8125
Q22.3125 6.89062 25.9844 6.89062
Q35.75 6.89062 40.8906 13.4531
Q46.0469 20.0156 46.7812 33.4062
Q43.9531 29.2031 39.5938 26.9531
Q35.25 24.7031 29.9844 24.7031
Q19.0469 24.7031 12.6719 31.3125
Q6.29688 37.9375 6.29688 49.4219
Q6.29688 60.6406 12.9375 67.4219
Q19.5781 74.2188 30.6094 74.2188
Q43.2656 74.2188 49.9219 64.5156
Q56.5938 54.8281 56.5938 36.375
Q56.5938 19.1406 48.4062 8.85938
Q40.2344 -1.42188 26.4219 -1.42188
Q22.7031 -1.42188 18.8906 -0.6875
Q15.0938 0.046875 10.9844 1.51562
M30.6094 32.4219
Q37.25 32.4219 41.125 36.9531
Q45.0156 41.5 45.0156 49.4219
Q45.0156 57.2812 41.125 61.8438
Q37.25 66.4062 30.6094 66.4062
Q23.9688 66.4062 20.0938 61.8438
Q16.2188 57.2812 16.2188 49.4219
Q16.2188 41.5 20.0938 36.9531
Q23.9688 32.4219 30.6094 32.4219" id="BitstreamVeraSans-Roman-39"/>
      </defs>
      <g transform="translate(461.0596875 401.918125)scale(0.12 -0.12)">
       <use xlink:href="#BitstreamVeraSans-Roman-30"/>
       <use x="63.623046875" xlink:href="#BitstreamVeraSans-Roman-2e"/>
       <use x="95.41015625" xlink:href="#BitstreamVeraSans-Roman-39"/>
       <use x="159.033203125" xlink:href="#BitstreamVeraSans-Roman-30"/>
      </g>
     </g>
    </g>
    <g id="xtick_6">
     <g id="line2d_16">
      <g>
       <use style="stroke:#000000;stroke-width:0.5;" x="560.8125" xlink:href="#m93b0483c22" y="388.8"/>
      </g>
     </g>
     <g id="line2d_17">
      <g>
       <use style="stroke:#000000;stroke-width:0.5;" x="560.8125" xlink:href="#m741efc42ff" y="43.2"/>
      </g>
     </g>
     <g id="text_6">
      <!-- 0.95 -->
      <g transform="translate(548.3728125 401.918125)scale(0.12 -0.12)">
       <use xlink:href="#BitstreamVeraSans-Roman-30"/>
       <use x="63.623046875" xlink:href="#BitstreamVeraSans-Roman-2e"/>
       <use x="95.41015625" xlink:href="#BitstreamVeraSans-Roman-39"/>
       <use x="159.033203125" xlink:href="#BitstreamVeraSans-Roman-35"/>
      </g>
     </g>
    </g>
    <g id="xtick_7">
     <g id="line2d_18">
      <g>
       <use style="stroke:#000000;stroke-width:0.5;" x="648.0" xlink:href="#m93b0483c22" y="388.8"/>
      </g>
     </g>
     <g id="line2d_19">
      <g>
       <use style="stroke:#000000;stroke-width:0.5;" x="648.0" xlink:href="#m741efc42ff" y="43.2"/>
      </g>
     </g>
     <g id="text_7">
      <!-- 1.00 -->
      <defs>
       <path d="
M12.4062 8.29688
L28.5156 8.29688
L28.5156 63.9219
L10.9844 60.4062
L10.9844 69.3906
L28.4219 72.9062
L38.2812 72.9062
L38.2812 8.29688
L54.3906 8.29688
L54.3906 0
L12.4062 0
z
" id="BitstreamVeraSans-Roman-31"/>
      </defs>
      <g transform="translate(635.698125 401.918125)scale(0.12 -0.12)">
       <use xlink:href="#BitstreamVeraSans-Roman-31"/>
       <use x="63.623046875" xlink:href="#BitstreamVeraSans-Roman-2e"/>
       <use x="95.41015625" xlink:href="#BitstreamVeraSans-Roman-30"/>
       <use x="159.033203125" xlink:href="#BitstreamVeraSans-Roman-30"/>
      </g>
     </g>
    </g>
    <g id="text_8">
     <!-- Similarity threshold -->
     <defs>
      <path id="BitstreamVeraSans-Roman-20"/>
      <path d="
M52 44.1875
Q55.375 50.25 60.0625 53.125
Q64.75 56 71.0938 56
Q79.6406 56 84.2812 50.0156
Q88.9219 44.0469 88.9219 33.0156
L88.9219 0
L79.8906 0
L79.8906 32.7188
Q79.8906 40.5781 77.0938 44.375
Q74.3125 48.1875 68.6094 48.1875
Q61.625 48.1875 57.5625 43.5469
Q53.5156 38.9219 53.5156 30.9062
L53.5156 0
L44.4844 0
L44.4844 32.7188
Q44.4844 40.625 41.7031 44.4062
Q38.9219 48.1875 33.1094 48.1875
Q26.2188 48.1875 22.1562 43.5312
Q18.1094 38.875 18.1094 30.9062
L18.1094 0
L9.07812 0
L9.07812 54.6875
L18.1094 54.6875
L18.1094 46.1875
Q21.1875 51.2188 25.4844 53.6094
Q29.7812 56 35.6875 56
Q41.6562 56 45.8281 52.9688
Q50 49.9531 52 44.1875" id="BitstreamVeraSans-Roman-6d"/>
      <path d="
M30.6094 48.3906
Q23.3906 48.3906 19.1875 42.75
Q14.9844 37.1094 14.9844 27.2969
Q14.9844 17.4844 19.1562 11.8438
Q23.3438 6.20312 30.6094 6.20312
Q37.7969 6.20312 41.9844 11.8594
Q46.1875 17.5312 46.1875 27.2969
Q46.1875 37.0156 41.9844 42.7031
Q37.7969 48.3906 30.6094 48.3906
M30.6094 56
Q42.3281 56 49.0156 48.375
Q55.7188 40.7656 55.7188 27.2969
Q55.7188 13.875 49.0156 6.21875
Q42.3281 -1.42188 30.6094 -1.42188
Q18.8438 -1.42188 12.1719 6.21875
Q5.51562 13.875 5.51562 27.2969
Q5.51562 40.7656 12.1719 48.375
Q18.8438 56 30.6094 56" id="BitstreamVeraSans-Roman-6f"/>
      <path d="
M9.42188 75.9844
L18.4062 75.9844
L18.4062 0
L9.42188 0
z
" id="BitstreamVeraSans-Roman-6c"/>
      <path d="
M44.2812 53.0781
L44.2812 44.5781
Q40.4844 46.5312 36.375 47.5
Q32.2812 48.4844 27.875 48.4844
Q21.1875 48.4844 17.8438 46.4375
Q14.5 44.3906 14.5 40.2812
Q14.5 37.1562 16.8906 35.375
Q19.2812 33.5938 26.5156 31.9844
L29.5938 31.2969
Q39.1562 29.25 43.1875 25.5156
Q47.2188 21.7812 47.2188 15.0938
Q47.2188 7.46875 41.1875 3.01562
Q35.1562 -1.42188 24.6094 -1.42188
Q20.2188 -1.42188 15.4531 -0.5625
Q10.6875 0.296875 5.42188 2
L5.42188 11.2812
Q10.4062 8.6875 15.2344 7.39062
Q20.0625 6.10938 24.8125 6.10938
Q31.1562 6.10938 34.5625 8.28125
Q37.9844 10.4531 37.9844 14.4062
Q37.9844 18.0625 35.5156 20.0156
Q33.0625 21.9688 24.7031 23.7812
L21.5781 24.5156
Q13.2344 26.2656 9.51562 29.9062
Q5.8125 33.5469 5.8125 39.8906
Q5.8125 47.6094 11.2812 51.7969
Q16.75 56 26.8125 56
Q31.7812 56 36.1719 55.2656
Q40.5781 54.5469 44.2812 53.0781" id="BitstreamVeraSans-Roman-73"/>
      <path d="
M53.5156 70.5156
L53.5156 60.8906
Q47.9062 63.5781 42.9219 64.8906
Q37.9375 66.2188 33.2969 66.2188
Q25.25 66.2188 20.875 63.0938
Q16.5 59.9688 16.5 54.2031
Q16.5 49.3594 19.4062 46.8906
Q22.3125 44.4375 30.4219 42.9219
L36.375 41.7031
Q47.4062 39.5938 52.6562 34.2969
Q57.9062 29 57.9062 20.125
Q57.9062 9.51562 50.7969 4.04688
Q43.7031 -1.42188 29.9844 -1.42188
Q24.8125 -1.42188 18.9688 -0.25
Q13.1406 0.921875 6.89062 3.21875
L6.89062 13.375
Q12.8906 10.0156 18.6562 8.29688
Q24.4219 6.59375 29.9844 6.59375
Q38.4219 6.59375 43.0156 9.90625
Q47.6094 13.2344 47.6094 19.3906
Q47.6094 24.75 44.3125 27.7812
Q41.0156 30.8125 33.5 32.3281
L27.4844 33.5
Q16.4531 35.6875 11.5156 40.375
Q6.59375 45.0625 6.59375 53.4219
Q6.59375 63.0938 13.4062 68.6562
Q20.2188 74.2188 32.1719 74.2188
Q37.3125 74.2188 42.625 73.2812
Q47.9531 72.3594 53.5156 70.5156" id="BitstreamVeraSans-Roman-53"/>
      <path d="
M9.42188 54.6875
L18.4062 54.6875
L18.4062 0
L9.42188 0
z

M9.42188 75.9844
L18.4062 75.9844
L18.4062 64.5938
L9.42188 64.5938
z
" id="BitstreamVeraSans-Roman-69"/>
      <path d="
M54.8906 33.0156
L54.8906 0
L45.9062 0
L45.9062 32.7188
Q45.9062 40.4844 42.875 44.3281
Q39.8438 48.1875 33.7969 48.1875
Q26.5156 48.1875 22.3125 43.5469
Q18.1094 38.9219 18.1094 30.9062
L18.1094 0
L9.07812 0
L9.07812 75.9844
L18.1094 75.9844
L18.1094 46.1875
Q21.3438 51.125 25.7031 53.5625
Q30.0781 56 35.7969 56
Q45.2188 56 50.0469 50.1719
Q54.8906 44.3438 54.8906 33.0156" id="BitstreamVeraSans-Roman-68"/>
      <path d="
M32.1719 -5.07812
Q28.375 -14.8438 24.75 -17.8125
Q21.1406 -20.7969 15.0938 -20.7969
L7.90625 -20.7969
L7.90625 -13.2812
L13.1875 -13.2812
Q16.8906 -13.2812 18.9375 -11.5156
Q21 -9.76562 23.4844 -3.21875
L25.0938 0.875
L2.98438 54.6875
L12.5 54.6875
L29.5938 11.9219
L46.6875 54.6875
L56.2031 54.6875
z
" id="BitstreamVeraSans-Roman-79"/>
      <path d="
M56.2031 29.5938
L56.2031 25.2031
L14.8906 25.2031
Q15.4844 15.9219 20.4844 11.0625
Q25.4844 6.20312 34.4219 6.20312
Q39.5938 6.20312 44.4531 7.46875
Q49.3125 8.73438 54.1094 11.2812
L54.1094 2.78125
Q49.2656 0.734375 44.1875 -0.34375
Q39.1094 -1.42188 33.8906 -1.42188
Q20.7969 -1.42188 13.1562 6.1875
Q5.51562 13.8125 5.51562 26.8125
Q5.51562 40.2344 12.7656 48.1094
Q20.0156 56 32.3281 56
Q43.3594 56 49.7812 48.8906
Q56.2031 41.7969 56.2031 29.5938
M47.2188 32.2344
Q47.125 39.5938 43.0938 43.9844
Q39.0625 48.3906 32.4219 48.3906
Q24.9062 48.3906 20.3906 44.1406
Q15.875 39.8906 15.1875 32.1719
z
" id="BitstreamVeraSans-Roman-65"/>
      <path d="
M45.4062 46.3906
L45.4062 75.9844
L54.3906 75.9844
L54.3906 0
L45.4062 0
L45.4062 8.20312
Q42.5781 3.32812 38.25 0.953125
Q33.9375 -1.42188 27.875 -1.42188
Q17.9688 -1.42188 11.7344 6.48438
Q5.51562 14.4062 5.51562 27.2969
Q5.51562 40.1875 11.7344 48.0938
Q17.9688 56 27.875 56
Q33.9375 56 38.25 53.625
Q42.5781 51.2656 45.4062 46.3906
M14.7969 27.2969
Q14.7969 17.3906 18.875 11.75
Q22.9531 6.10938 30.0781 6.10938
Q37.2031 6.10938 41.2969 11.75
Q45.4062 17.3906 45.4062 27.2969
Q45.4062 37.2031 41.2969 42.8438
Q37.2031 48.4844 30.0781 48.4844
Q22.9531 48.4844 18.875 42.8438
Q14.7969 37.2031 14.7969 27.2969" id="BitstreamVeraSans-Roman-64"/>
      <path d="
M34.2812 27.4844
Q23.3906 27.4844 19.1875 25
Q14.9844 22.5156 14.9844 16.5
Q14.9844 11.7188 18.1406 8.90625
Q21.2969 6.10938 26.7031 6.10938
Q34.1875 6.10938 38.7031 11.4062
Q43.2188 16.7031 43.2188 25.4844
L43.2188 27.4844
z

M52.2031 31.2031
L52.2031 0
L43.2188 0
L43.2188 8.29688
Q40.1406 3.32812 35.5469 0.953125
Q30.9531 -1.42188 24.3125 -1.42188
Q15.9219 -1.42188 10.9531 3.29688
Q6 8.01562 6 15.9219
Q6 25.1406 12.1719 29.8281
Q18.3594 34.5156 30.6094 34.5156
L43.2188 34.5156
L43.2188 35.4062
Q43.2188 41.6094 39.1406 45
Q35.0625 48.3906 27.6875 48.3906
Q23 48.3906 18.5469 47.2656
Q14.1094 46.1406 10.0156 43.8906
L10.0156 52.2031
Q14.9375 54.1094 19.5781 55.0469
Q24.2188 56 28.6094 56
Q40.4844 56 46.3438 49.8438
Q52.2031 43.7031 52.2031 31.2031" id="BitstreamVeraSans-Roman-61"/>
      <path d="
M41.1094 46.2969
Q39.5938 47.1719 37.8125 47.5781
Q36.0312 48 33.8906 48
Q26.2656 48 22.1875 43.0469
Q18.1094 38.0938 18.1094 28.8125
L18.1094 0
L9.07812 0
L9.07812 54.6875
L18.1094 54.6875
L18.1094 46.1875
Q20.9531 51.1719 25.4844 53.5781
Q30.0312 56 36.5312 56
Q37.4531 56 38.5781 55.875
Q39.7031 55.7656 41.0625 55.5156
z
" id="BitstreamVeraSans-Roman-72"/>
      <path d="
M18.3125 70.2188
L18.3125 54.6875
L36.8125 54.6875
L36.8125 47.7031
L18.3125 47.7031
L18.3125 18.0156
Q18.3125 11.3281 20.1406 9.42188
Q21.9688 7.51562 27.5938 7.51562
L36.8125 7.51562
L36.8125 0
L27.5938 0
Q17.1875 0 13.2344 3.875
Q9.28125 7.76562 9.28125 18.0156
L9.28125 47.7031
L2.6875 47.7031
L2.6875 54.6875
L9.28125 54.6875
L9.28125 70.2188
z
" id="BitstreamVeraSans-Roman-74"/>
     </defs>
     <g transform="translate(311.0175 418.531875)scale(0.12 -0.12)">
      <use xlink:href="#BitstreamVeraSans-Roman-53"/>
      <use x="63.4765625" xlink:href="#BitstreamVeraSans-Roman-69"/>
      <use x="91.259765625" xlink:href="#BitstreamVeraSans-Roman-6d"/>
      <use x="188.671875" xlink:href="#BitstreamVeraSans-Roman-69"/>
      <use x="216.455078125" xlink:href="#BitstreamVeraSans-Roman-6c"/>
      <use x="244.23828125" xlink:href="#BitstreamVeraSans-Roman-61"/>
      <use x="305.517578125" xlink:href="#BitstreamVeraSans-Roman-72"/>
      <use x="346.630859375" xlink:href="#BitstreamVeraSans-Roman-69"/>
      <use x="374.4140625" xlink:href="#BitstreamVeraSans-Roman-74"/>
      <use x="413.623046875" xlink:href="#BitstreamVeraSans-Roman-79"/>
      <use x="472.802734375" xlink:href="#BitstreamVeraSans-Roman-20"/>
      <use x="504.58984375" xlink:href="#BitstreamVeraSans-Roman-74"/>
      <use x="543.798828125" xlink:href="#BitstreamVeraSans-Roman-68"/>
      <use x="607.177734375" xlink:href="#BitstreamVeraSans-Roman-72"/>
      <use x="646.041015625" xlink:href="#BitstreamVeraSans-Roman-65"/>
      <use x="707.564453125" xlink:href="#BitstreamVeraSans-Roman-73"/>
      <use x="759.6640625" xlink:href="#BitstreamVeraSans-Roman-68"/>
      <use x="823.04296875" xlink:href="#BitstreamVeraSans-Roman-6f"/>
      <use x="884.224609375" xlink:href="#BitstreamVeraSans-Roman-6c"/>
      <use x="912.0078125" xlink:href="#BitstreamVeraSans-Roman-64"/>
     </g>
    </g>
   </g>
   <g id="matplotlib.axis_2">
    <g id="ytick_1">
     <g id="line2d_20">
      <defs>
       <path d="
M0 0
L4 0" id="m728421d6d4" style="stroke:#000000;stroke-width:0.5;"/>
      </defs>
      <g>
       <use style="stroke:#000000;stroke-width:0.5;" x="90.0" xlink:href="#m728421d6d4" y="388.8"/>
      </g>
     </g>
     <g id="line2d_21">
      <defs>
       <path d="
M0 0
L-4 0" id="mcb0005524f" style="stroke:#000000;stroke-width:0.5;"/>
      </defs>
      <g>
       <use style="stroke:#000000;stroke-width:0.5;" x="648.0" xlink:href="#mcb0005524f" y="388.8"/>
      </g>
     </g>
     <g id="text_9">
      <!-- 0 -->
      <g transform="translate(79.953125 392.11125)scale(0.12 -0.12)">
       <use xlink:href="#BitstreamVeraSans-Roman-30"/>
      </g>
     </g>
    </g>
    <g id="ytick_2">
     <g id="line2d_22">
      <g>
       <use style="stroke:#000000;stroke-width:0.5;" x="90.0" xlink:href="#m728421d6d4" y="325.963636364"/>
      </g>
     </g>
     <g id="line2d_23">
      <g>
       <use style="stroke:#000000;stroke-width:0.5;" x="648.0" xlink:href="#mcb0005524f" y="325.963636364"/>
      </g>
     </g>
     <g id="text_10">
      <!-- 200 -->
      <defs>
       <path d="
M19.1875 8.29688
L53.6094 8.29688
L53.6094 0
L7.32812 0
L7.32812 8.29688
Q12.9375 14.1094 22.625 23.8906
Q32.3281 33.6875 34.8125 36.5312
Q39.5469 41.8438 41.4219 45.5312
Q43.3125 49.2188 43.3125 52.7812
Q43.3125 58.5938 39.2344 62.25
Q35.1562 65.9219 28.6094 65.9219
Q23.9688 65.9219 18.8125 64.3125
Q13.6719 62.7031 7.8125 59.4219
L7.8125 69.3906
Q13.7656 71.7812 18.9375 73
Q24.125 74.2188 28.4219 74.2188
Q39.75 74.2188 46.4844 68.5469
Q53.2188 62.8906 53.2188 53.4219
Q53.2188 48.9219 51.5312 44.8906
Q49.8594 40.875 45.4062 35.4062
Q44.1875 33.9844 37.6406 27.2188
Q31.1094 20.4531 19.1875 8.29688" id="BitstreamVeraSans-Roman-32"/>
      </defs>
      <g transform="translate(64.77125 329.274886364)scale(0.12 -0.12)">
       <use xlink:href="#BitstreamVeraSans-Roman-32"/>
       <use x="63.623046875" xlink:href="#BitstreamVeraSans-Roman-30"/>
       <use x="127.24609375" xlink:href="#BitstreamVeraSans-Roman-30"/>
      </g>
     </g>
    </g>
    <g id="ytick_3">
     <g id="line2d_24">
      <g>
       <use style="stroke:#000000;stroke-width:0.5;" x="90.0" xlink:href="#m728421d6d4" y="263.127272727"/>
      </g>
     </g>
     <g id="line2d_25">
      <g>
       <use style="stroke:#000000;stroke-width:0.5;" x="648.0" xlink:href="#mcb0005524f" y="263.127272727"/>
      </g>
     </g>
     <g id="text_11">
      <!-- 400 -->
      <defs>
       <path d="
M37.7969 64.3125
L12.8906 25.3906
L37.7969 25.3906
z

M35.2031 72.9062
L47.6094 72.9062
L47.6094 25.3906
L58.0156 25.3906
L58.0156 17.1875
L47.6094 17.1875
L47.6094 0
L37.7969 0
L37.7969 17.1875
L4.89062 17.1875
L4.89062 26.7031
z
" id="BitstreamVeraSans-Roman-34"/>
      </defs>
      <g transform="translate(64.47875 266.438522727)scale(0.12 -0.12)">
       <use xlink:href="#BitstreamVeraSans-Roman-34"/>
       <use x="63.623046875" xlink:href="#BitstreamVeraSans-Roman-30"/>
       <use x="127.24609375" xlink:href="#BitstreamVeraSans-Roman-30"/>
      </g>
     </g>
    </g>
    <g id="ytick_4">
     <g id="line2d_26">
      <g>
       <use style="stroke:#000000;stroke-width:0.5;" x="90.0" xlink:href="#m728421d6d4" y="200.290909091"/>
      </g>
     </g>
     <g id="line2d_27">
      <g>
       <use style="stroke:#000000;stroke-width:0.5;" x="648.0" xlink:href="#mcb0005524f" y="200.290909091"/>
      </g>
     </g>
     <g id="text_12">
      <!-- 600 -->
      <defs>
       <path d="
M33.0156 40.375
Q26.375 40.375 22.4844 35.8281
Q18.6094 31.2969 18.6094 23.3906
Q18.6094 15.5312 22.4844 10.9531
Q26.375 6.39062 33.0156 6.39062
Q39.6562 6.39062 43.5312 10.9531
Q47.4062 15.5312 47.4062 23.3906
Q47.4062 31.2969 43.5312 35.8281
Q39.6562 40.375 33.0156 40.375
M52.5938 71.2969
L52.5938 62.3125
Q48.875 64.0625 45.0938 64.9844
Q41.3125 65.9219 37.5938 65.9219
Q27.8281 65.9219 22.6719 59.3281
Q17.5312 52.7344 16.7969 39.4062
Q19.6719 43.6562 24.0156 45.9219
Q28.375 48.1875 33.5938 48.1875
Q44.5781 48.1875 50.9531 41.5156
Q57.3281 34.8594 57.3281 23.3906
Q57.3281 12.1562 50.6875 5.35938
Q44.0469 -1.42188 33.0156 -1.42188
Q20.3594 -1.42188 13.6719 8.26562
Q6.98438 17.9688 6.98438 36.375
Q6.98438 53.6562 15.1875 63.9375
Q23.3906 74.2188 37.2031 74.2188
Q40.9219 74.2188 44.7031 73.4844
Q48.4844 72.75 52.5938 71.2969" id="BitstreamVeraSans-Roman-36"/>
      </defs>
      <g transform="translate(64.73 203.602159091)scale(0.12 -0.12)">
       <use xlink:href="#BitstreamVeraSans-Roman-36"/>
       <use x="63.623046875" xlink:href="#BitstreamVeraSans-Roman-30"/>
       <use x="127.24609375" xlink:href="#BitstreamVeraSans-Roman-30"/>
      </g>
     </g>
    </g>
    <g id="ytick_5">
     <g id="line2d_28">
      <g>
       <use style="stroke:#000000;stroke-width:0.5;" x="90.0" xlink:href="#m728421d6d4" y="137.454545455"/>
      </g>
     </g>
     <g id="line2d_29">
      <g>
       <use style="stroke:#000000;stroke-width:0.5;" x="648.0" xlink:href="#mcb0005524f" y="137.454545455"/>
      </g>
     </g>
     <g id="text_13">
      <!-- 800 -->
      <g transform="translate(64.705625 140.765795455)scale(0.12 -0.12)">
       <use xlink:href="#BitstreamVeraSans-Roman-38"/>
       <use x="63.623046875" xlink:href="#BitstreamVeraSans-Roman-30"/>
       <use x="127.24609375" xlink:href="#BitstreamVeraSans-Roman-30"/>
      </g>
     </g>
    </g>
    <g id="ytick_6">
     <g id="line2d_30">
      <g>
       <use style="stroke:#000000;stroke-width:0.5;" x="90.0" xlink:href="#m728421d6d4" y="74.6181818182"/>
      </g>
     </g>
     <g id="line2d_31">
      <g>
       <use style="stroke:#000000;stroke-width:0.5;" x="648.0" xlink:href="#mcb0005524f" y="74.6181818182"/>
      </g>
     </g>
     <g id="text_14">
      <!-- 1000 -->
      <g transform="translate(57.575 77.9294318182)scale(0.12 -0.12)">
       <use xlink:href="#BitstreamVeraSans-Roman-31"/>
       <use x="63.623046875" xlink:href="#BitstreamVeraSans-Roman-30"/>
       <use x="127.24609375" xlink:href="#BitstreamVeraSans-Roman-30"/>
       <use x="190.869140625" xlink:href="#BitstreamVeraSans-Roman-30"/>
      </g>
     </g>
    </g>
    <g id="text_15">
     <!-- Median query time (ms) -->
     <defs>
      <path d="
M9.8125 72.9062
L24.5156 72.9062
L43.1094 23.2969
L61.8125 72.9062
L76.5156 72.9062
L76.5156 0
L66.8906 0
L66.8906 64.0156
L48.0938 14.0156
L38.1875 14.0156
L19.3906 64.0156
L19.3906 0
L9.8125 0
z
" id="BitstreamVeraSans-Roman-4d"/>
      <path d="
M54.8906 33.0156
L54.8906 0
L45.9062 0
L45.9062 32.7188
Q45.9062 40.4844 42.875 44.3281
Q39.8438 48.1875 33.7969 48.1875
Q26.5156 48.1875 22.3125 43.5469
Q18.1094 38.9219 18.1094 30.9062
L18.1094 0
L9.07812 0
L9.07812 54.6875
L18.1094 54.6875
L18.1094 46.1875
Q21.3438 51.125 25.7031 53.5625
Q30.0781 56 35.7969 56
Q45.2188 56 50.0469 50.1719
Q54.8906 44.3438 54.8906 33.0156" id="BitstreamVeraSans-Roman-6e"/>
      <path d="
M31 75.875
Q24.4688 64.6562 21.2812 53.6562
Q18.1094 42.6719 18.1094 31.3906
Q18.1094 20.125 21.3125 9.0625
Q24.5156 -2 31 -13.1875
L23.1875 -13.1875
Q15.875 -1.70312 12.2344 9.375
Q8.59375 20.4531 8.59375 31.3906
Q8.59375 42.2812 12.2031 53.3125
Q15.8281 64.3594 23.1875 75.875
z
" id="BitstreamVeraSans-Roman-28"/>
      <path d="
M8.01562 75.875
L15.8281 75.875
Q23.1406 64.3594 26.7812 53.3125
Q30.4219 42.2812 30.4219 31.3906
Q30.4219 20.4531 26.7812 9.375
Q23.1406 -1.70312 15.8281 -13.1875
L8.01562 -13.1875
Q14.5 -2 17.7031 9.0625
Q20.9062 20.125 20.9062 31.3906
Q20.9062 42.6719 17.7031 53.6562
Q14.5 64.6562 8.01562 75.875" id="BitstreamVeraSans-Roman-29"/>
      <path d="
M8.5 21.5781
L8.5 54.6875
L17.4844 54.6875
L17.4844 21.9219
Q17.4844 14.1562 20.5 10.2656
Q23.5312 6.39062 29.5938 6.39062
Q36.8594 6.39062 41.0781 11.0312
Q45.3125 15.6719 45.3125 23.6875
L45.3125 54.6875
L54.2969 54.6875
L54.2969 0
L45.3125 0
L45.3125 8.40625
Q42.0469 3.42188 37.7188 1
Q33.4062 -1.42188 27.6875 -1.42188
Q18.2656 -1.42188 13.375 4.4375
Q8.5 10.2969 8.5 21.5781" id="BitstreamVeraSans-Roman-75"/>
      <path d="
M14.7969 27.2969
Q14.7969 17.3906 18.875 11.75
Q22.9531 6.10938 30.0781 6.10938
Q37.2031 6.10938 41.2969 11.75
Q45.4062 17.3906 45.4062 27.2969
Q45.4062 37.2031 41.2969 42.8438
Q37.2031 48.4844 30.0781 48.4844
Q22.9531 48.4844 18.875 42.8438
Q14.7969 37.2031 14.7969 27.2969
M45.4062 8.20312
Q42.5781 3.32812 38.25 0.953125
Q33.9375 -1.42188 27.875 -1.42188
Q17.9688 -1.42188 11.7344 6.48438
Q5.51562 14.4062 5.51562 27.2969
Q5.51562 40.1875 11.7344 48.0938
Q17.9688 56 27.875 56
Q33.9375 56 38.25 53.625
Q42.5781 51.2656 45.4062 46.3906
L45.4062 54.6875
L54.3906 54.6875
L54.3906 -20.7969
L45.4062 -20.7969
z
" id="BitstreamVeraSans-Roman-71"/>
     </defs>
     <g transform="translate(50.079375 287.5575)rotate(-90.0)scale(0.12 -0.12)">
      <use xlink:href="#BitstreamVeraSans-Roman-4d"/>
      <use x="86.279296875" xlink:href="#BitstreamVeraSans-Roman-65"/>
      <use x="147.802734375" xlink:href="#BitstreamVeraSans-Roman-64"/>
      <use x="211.279296875" xlink:href="#BitstreamVeraSans-Roman-69"/>
      <use x="239.0625" xlink:href="#BitstreamVeraSans-Roman-61"/>
      <use x="300.341796875" xlink:href="#BitstreamVeraSans-Roman-6e"/>
      <use x="363.720703125" xlink:href="#BitstreamVeraSans-Roman-20"/>
      <use x="395.5078125" xlink:href="#BitstreamVeraSans-Roman-71"/>
      <use x="458.984375" xlink:href="#BitstreamVeraSans-Roman-75"/>
      <use x="522.36328125" xlink:href="#BitstreamVeraSans-Roman-65"/>
      <use x="583.88671875" xlink:href="#BitstreamVeraSans-Roman-72"/>
      <use x="625.0" xlink:href="#BitstreamVeraSans-Roman-79"/>
      <use x="684.1796875" xlink:href="#BitstreamVeraSans-Roman-20"/>
      <use x="715.966796875" xlink:href="#BitstreamVeraSans-Roman-74"/>
      <use x="755.17578125" xlink:href="#BitstreamVeraSans-Roman-69"/>
      <use x="782.958984375" xlink:href="#BitstreamVeraSans-Roman-6d"/>
      <use x="880.37109375" xlink:href="#BitstreamVeraSans-Roman-65"/>
      <use x="941.89453125" xlink:href="#BitstreamVeraSans-Roman-20"/>
      <use x="973.681640625" xlink:href="#BitstreamVeraSans-Roman-28"/>
      <use x="1012.6953125" xlink:href="#BitstreamVeraSans-Roman-6d"/>
      <use x="1110.10742188" xlink:href="#BitstreamVeraSans-Roman-73"/>
      <use x="1162.20703125" xlink:href="#BitstreamVeraSans-Roman-29"/>
     </g>
    </g>
   </g>
   <g id="patch_3">
    <path d="
M90 43.2
L648 43.2" style="fill:none;stroke:#000000;"/>
   </g>
   <g id="patch_4">
    <path d="
M648 388.8
L648 43.2" style="fill:none;stroke:#000000;"/>
   </g>
   <g id="patch_5">
    <path d="
M90 388.8
L648 388.8" style="fill:none;stroke:#000000;"/>
   </g>
   <g id="patch_6">
    <path d="
M90 388.8
L90 43.2" style="fill:none;stroke:#000000;"/>
   </g>
   <g id="legend_1">
    <g id="patch_7">
     <path d="
M440.199 139.266
L640.8 139.266
L640.8 50.4
L440.199 50.4
L440.199 139.266
z
" style="fill:#ffffff;stroke:#000000;"/>
    </g>
    <g id="line2d_32">
     <path d="
M445.959 62.0617
L474.759 62.0617" style="fill:none;stroke:#808080;stroke-dasharray:6.000000,6.000000;stroke-dashoffset:0.0;"/>
    </g>
    <g id="line2d_33">
     <g>
      <use x="460.359" xlink:href="#m4f7e51ea95" y="62.06175"/>
     </g>
    </g>
    <g id="text_16">
     <!-- PostgreSQL 512 -->
     <defs>
      <path d="
M19.6719 64.7969
L19.6719 37.4062
L32.0781 37.4062
Q38.9688 37.4062 42.7188 40.9688
Q46.4844 44.5312 46.4844 51.125
Q46.4844 57.6719 42.7188 61.2344
Q38.9688 64.7969 32.0781 64.7969
z

M9.8125 72.9062
L32.0781 72.9062
Q44.3438 72.9062 50.6094 67.3594
Q56.8906 61.8125 56.8906 51.125
Q56.8906 40.3281 50.6094 34.8125
Q44.3438 29.2969 32.0781 29.2969
L19.6719 29.2969
L19.6719 0
L9.8125 0
z
" id="BitstreamVeraSans-Roman-50"/>
      <path d="
M39.4062 66.2188
Q28.6562 66.2188 22.3281 58.2031
Q16.0156 50.2031 16.0156 36.375
Q16.0156 22.6094 22.3281 14.5938
Q28.6562 6.59375 39.4062 6.59375
Q50.1406 6.59375 56.4219 14.5938
Q62.7031 22.6094 62.7031 36.375
Q62.7031 50.2031 56.4219 58.2031
Q50.1406 66.2188 39.4062 66.2188
M53.2188 1.3125
L66.2188 -12.8906
L54.2969 -12.8906
L43.5 -1.21875
Q41.8906 -1.3125 41.0312 -1.35938
Q40.1875 -1.42188 39.4062 -1.42188
Q24.0312 -1.42188 14.8125 8.85938
Q5.60938 19.1406 5.60938 36.375
Q5.60938 53.6562 14.8125 63.9375
Q24.0312 74.2188 39.4062 74.2188
Q54.7344 74.2188 63.9062 63.9375
Q73.0938 53.6562 73.0938 36.375
Q73.0938 23.6875 67.9844 14.6406
Q62.8906 5.60938 53.2188 1.3125" id="BitstreamVeraSans-Roman-51"/>
      <path d="
M45.4062 27.9844
Q45.4062 37.75 41.375 43.1094
Q37.3594 48.4844 30.0781 48.4844
Q22.8594 48.4844 18.8281 43.1094
Q14.7969 37.75 14.7969 27.9844
Q14.7969 18.2656 18.8281 12.8906
Q22.8594 7.51562 30.0781 7.51562
Q37.3594 7.51562 41.375 12.8906
Q45.4062 18.2656 45.4062 27.9844
M54.3906 6.78125
Q54.3906 -7.17188 48.1875 -13.9844
Q42 -20.7969 29.2031 -20.7969
Q24.4688 -20.7969 20.2656 -20.0938
Q16.0625 -19.3906 12.1094 -17.9219
L12.1094 -9.1875
Q16.0625 -11.3281 19.9219 -12.3438
Q23.7812 -13.375 27.7812 -13.375
Q36.625 -13.375 41.0156 -8.76562
Q45.4062 -4.15625 45.4062 5.17188
L45.4062 9.625
Q42.625 4.78125 38.2812 2.39062
Q33.9375 0 27.875 0
Q17.8281 0 11.6719 7.65625
Q5.51562 15.3281 5.51562 27.9844
Q5.51562 40.6719 11.6719 48.3281
Q17.8281 56 27.875 56
Q33.9375 56 38.2812 53.6094
Q42.625 51.2188 45.4062 46.3906
L45.4062 54.6875
L54.3906 54.6875
z
" id="BitstreamVeraSans-Roman-67"/>
      <path d="
M9.8125 72.9062
L19.6719 72.9062
L19.6719 8.29688
L55.1719 8.29688
L55.1719 0
L9.8125 0
z
" id="BitstreamVeraSans-Roman-4c"/>
     </defs>
     <g transform="translate(486.279 67.10175)scale(0.144 -0.144)">
      <use xlink:href="#BitstreamVeraSans-Roman-50"/>
      <use x="56.677734375" xlink:href="#BitstreamVeraSans-Roman-6f"/>
      <use x="117.859375" xlink:href="#BitstreamVeraSans-Roman-73"/>
      <use x="169.958984375" xlink:href="#BitstreamVeraSans-Roman-74"/>
      <use x="209.16796875" xlink:href="#BitstreamVeraSans-Roman-67"/>
      <use x="272.64453125" xlink:href="#BitstreamVeraSans-Roman-72"/>
      <use x="311.5078125" xlink:href="#BitstreamVeraSans-Roman-65"/>
      <use x="373.03125" xlink:href="#BitstreamVeraSans-Roman-53"/>
      <use x="436.5078125" xlink:href="#BitstreamVeraSans-Roman-51"/>
      <use x="515.21875" xlink:href="#BitstreamVeraSans-Roman-4c"/>
      <use x="570.931640625" xlink:href="#BitstreamVeraSans-Roman-20"/>
      <use x="602.71875" xlink:href="#BitstreamVeraSans-Roman-35"/>
      <use x="666.341796875" xlink:href="#BitstreamVeraSans-Roman-31"/>
      <use x="729.96484375" xlink:href="#BitstreamVeraSans-Roman-32"/>
     </g>
    </g>
    <g id="line2d_34">
     <path d="
M445.959 83.1983
L474.759 83.1983" style="fill:none;stroke:#808080;stroke-dasharray:6.000000,6.000000;stroke-dashoffset:0.0;"/>
    </g>
    <g id="line2d_35">
     <g>
      <use x="460.359" xlink:href="#m4b7bbbf68f" y="83.19825"/>
     </g>
    </g>
    <g id="text_17">
     <!-- PostgreSQL 2048 -->
     <g transform="translate(486.279 88.23825)scale(0.144 -0.144)">
      <use xlink:href="#BitstreamVeraSans-Roman-50"/>
      <use x="56.677734375" xlink:href="#BitstreamVeraSans-Roman-6f"/>
      <use x="117.859375" xlink:href="#BitstreamVeraSans-Roman-73"/>
      <use x="169.958984375" xlink:href="#BitstreamVeraSans-Roman-74"/>
      <use x="209.16796875" xlink:href="#BitstreamVeraSans-Roman-67"/>
      <use x="272.64453125" xlink:href="#BitstreamVeraSans-Roman-72"/>
      <use x="311.5078125" xlink:href="#BitstreamVeraSans-Roman-65"/>
      <use x="373.03125" xlink:href="#BitstreamVeraSans-Roman-53"/>
      <use x="436.5078125" xlink:href="#BitstreamVeraSans-Roman-51"/>
      <use x="515.21875" xlink:href="#BitstreamVeraSans-Roman-4c"/>
      <use x="570.931640625" xlink:href="#BitstreamVeraSans-Roman-20"/>
      <use x="602.71875" xlink:href="#BitstreamVeraSans-Roman-32"/>
      <use x="666.341796875" xlink:href="#BitstreamVeraSans-Roman-30"/>
      <use x="729.96484375" xlink:href="#BitstreamVeraSans-Roman-34"/>
      <use x="793.587890625" xlink:href="#BitstreamVeraSans-Roman-38"/>
     </g>
    </g>
    <g id="line2d_36">
     <path d="
M445.959 104.335
L474.759 104.335" style="fill:none;stroke:#808080;stroke-dasharray:6.000000,6.000000;stroke-dashoffset:0.0;"/>
    </g>
    <g id="line2d_37">
     <g>
      <use x="460.359" xlink:href="#mb7de39b556" y="104.33475"/>
     </g>
    </g>
    <g id="text_18">
     <!-- PostgreSQL unfolded -->
     <defs>
      <path d="
M37.1094 75.9844
L37.1094 68.5
L28.5156 68.5
Q23.6875 68.5 21.7969 66.5469
Q19.9219 64.5938 19.9219 59.5156
L19.9219 54.6875
L34.7188 54.6875
L34.7188 47.7031
L19.9219 47.7031
L19.9219 0
L10.8906 0
L10.8906 47.7031
L2.29688 47.7031
L2.29688 54.6875
L10.8906 54.6875
L10.8906 58.5
Q10.8906 67.625 15.1406 71.7969
Q19.3906 75.9844 28.6094 75.9844
z
" id="BitstreamVeraSans-Roman-66"/>
     </defs>
     <g transform="translate(486.279 109.37475)scale(0.144 -0.144)">
      <use xlink:href="#BitstreamVeraSans-Roman-50"/>
      <use x="56.677734375" xlink:href="#BitstreamVeraSans-Roman-6f"/>
      <use x="117.859375" xlink:href="#BitstreamVeraSans-Roman-73"/>
      <use x="169.958984375" xlink:href="#BitstreamVeraSans-Roman-74"/>
      <use x="209.16796875" xlink:href="#BitstreamVeraSans-Roman-67"/>
      <use x="272.64453125" xlink:href="#BitstreamVeraSans-Roman-72"/>
      <use x="311.5078125" xlink:href="#BitstreamVeraSans-Roman-65"/>
      <use x="373.03125" xlink:href="#BitstreamVeraSans-Roman-53"/>
      <use x="436.5078125" xlink:href="#BitstreamVeraSans-Roman-51"/>
      <use x="515.21875" xlink:href="#BitstreamVeraSans-Roman-4c"/>
      <use x="570.931640625" xlink:href="#BitstreamVeraSans-Roman-20"/>
      <use x="602.71875" xlink:href="#BitstreamVeraSans-Roman-75"/>
      <use x="666.09765625" xlink:href="#BitstreamVeraSans-Roman-6e"/>
      <use x="729.4765625" xlink:href="#BitstreamVeraSans-Roman-66"/>
      <use x="764.681640625" xlink:href="#BitstreamVeraSans-Roman-6f"/>
      <use x="825.86328125" xlink:href="#BitstreamVeraSans-Roman-6c"/>
      <use x="853.646484375" xlink:href="#BitstreamVeraSans-Roman-64"/>
      <use x="917.123046875" xlink:href="#BitstreamVeraSans-Roman-65"/>
      <use x="978.646484375" xlink:href="#BitstreamVeraSans-Roman-64"/>
     </g>
    </g>
    <g id="line2d_38"/>
    <g id="line2d_39">
     <g>
      <use style="fill:#ffffff;stroke:#000000;" x="460.359" xlink:href="#m4bf917ace6" y="125.47125"/>
     </g>
    </g>
    <g id="text_19">
     <!-- MongoDB unfolded -->
     <defs>
      <path d="
M19.6719 64.7969
L19.6719 8.10938
L31.5938 8.10938
Q46.6875 8.10938 53.6875 14.9375
Q60.6875 21.7812 60.6875 36.5312
Q60.6875 51.1719 53.6875 57.9844
Q46.6875 64.7969 31.5938 64.7969
z

M9.8125 72.9062
L30.0781 72.9062
Q51.2656 72.9062 61.1719 64.0938
Q71.0938 55.2812 71.0938 36.5312
Q71.0938 17.6719 61.125 8.82812
Q51.1719 0 30.0781 0
L9.8125 0
z
" id="BitstreamVeraSans-Roman-44"/>
      <path d="
M19.6719 34.8125
L19.6719 8.10938
L35.5 8.10938
Q43.4531 8.10938 47.2812 11.4062
Q51.125 14.7031 51.125 21.4844
Q51.125 28.3281 47.2812 31.5625
Q43.4531 34.8125 35.5 34.8125
z

M19.6719 64.7969
L19.6719 42.8281
L34.2812 42.8281
Q41.5 42.8281 45.0312 45.5312
Q48.5781 48.25 48.5781 53.8125
Q48.5781 59.3281 45.0312 62.0625
Q41.5 64.7969 34.2812 64.7969
z

M9.8125 72.9062
L35.0156 72.9062
Q46.2969 72.9062 52.3906 68.2188
Q58.5 63.5312 58.5 54.8906
Q58.5 48.1875 55.375 44.2344
Q52.25 40.2812 46.1875 39.3125
Q53.4688 37.75 57.5 32.7812
Q61.5312 27.8281 61.5312 20.4062
Q61.5312 10.6406 54.8906 5.3125
Q48.25 0 35.9844 0
L9.8125 0
z
" id="BitstreamVeraSans-Roman-42"/>
     </defs>
     <g transform="translate(486.279 130.51125)scale(0.144 -0.144)">
      <use xlink:href="#BitstreamVeraSans-Roman-4d"/>
      <use x="86.279296875" xlink:href="#BitstreamVeraSans-Roman-6f"/>
      <use x="147.4609375" xlink:href="#BitstreamVeraSans-Roman-6e"/>
      <use x="210.83984375" xlink:href="#BitstreamVeraSans-Roman-67"/>
      <use x="274.31640625" xlink:href="#BitstreamVeraSans-Roman-6f"/>
      <use x="335.498046875" xlink:href="#BitstreamVeraSans-Roman-44"/>
      <use x="412.5" xlink:href="#BitstreamVeraSans-Roman-42"/>
      <use x="481.103515625" xlink:href="#BitstreamVeraSans-Roman-20"/>
      <use x="512.890625" xlink:href="#BitstreamVeraSans-Roman-75"/>
      <use x="576.26953125" xlink:href="#BitstreamVeraSans-Roman-6e"/>
      <use x="639.6484375" xlink:href="#BitstreamVeraSans-Roman-66"/>
      <use x="674.853515625" xlink:href="#BitstreamVeraSans-Roman-6f"/>
      <use x="736.03515625" xlink:href="#BitstreamVeraSans-Roman-6c"/>
      <use x="763.818359375" xlink:href="#BitstreamVeraSans-Roman-64"/>
      <use x="827.294921875" xlink:href="#BitstreamVeraSans-Roman-65"/>
      <use x="888.818359375" xlink:href="#BitstreamVeraSans-Roman-64"/>
     </g>
    </g>
   </g>
  </g>
 </g>
 <defs>
  <clipPath id="pd03f7f58b8">
   <rect height="345.6" width="558.0" x="90.0" y="43.2"/>
  </clipPath>
 </defs>
</svg>
